<?xml version="1.0" encoding="UTF-8" standalone="no"?>
<svg
   id="Capa_1"
   version="1.1"
   viewBox="0 0 1504 1449.89"
   sodipodi:docname="icon.svg"
   inkscape:version="1.4.3 (fcd0343856, 2026-01-01)"
   xmlns:inkscape="http://www.inkscape.org/namespaces/inkscape"
   xmlns:sodipodi="http://sodipodi.sourceforge.net/DTD/sodipodi-0.dtd"
   xmlns="http://www.w3.org/2000/svg"
   xmlns:svg="http://www.w3.org/2000/svg"
   xmlns:i="http://ns.adobe.com/AdobeIllustrator/10.0/">
  <sodipodi:namedview
     id="namedview7"
     pagecolor="#505050"
     bordercolor="#eeeeee"
     borderopacity="1"
     inkscape:showpageshadow="0"
     inkscape:pageopacity="0"
     inkscape:pagecheckerboard="0"
     inkscape:deskcolor="#d1d1d1"
     showgrid="false"
     inkscape:zoom="0.29"
     inkscape:cx="586.2069"
     inkscape:cy="715.51724"
     inkscape:window-width="1920"
     inkscape:window-height="1043"
     inkscape:window-x="1366"
     inkscape:window-y="0"
     inkscape:window-maximized="1"
     inkscape:current-layer="_x30_d23ec0794" />
  <!-- Generator: Adobe Illustrator 29.5.0, SVG Export Plug-In . SVG Version: 2.1.0 Build 137)  -->
  <defs
     id="defs1">
    <style
       id="style1">
      .st0 {
        fill: #fff;
      }

      .st1 {
        fill: none;
      }

      .st2 {
        clip-path: url(#clippath-1);
      }

      .st3 {
        fill: #883b8b;
      }

      .st4 {
        clip-path: url(#clippath);
      }
    </style>
    <clipPath
       id="clippath">
      <rect
         class="st1"
         x="12.83"
         y="15.11"
         width="1479.17"
         height="1422.38"
         id="rect1" />
    </clipPath>
    <clipPath
       id="clippath-1">
      <path
         class="st1"
         d="M42.82,15.11h1418.35c7.96,0,15.58,3.16,21.21,8.79,5.62,5.62,8.78,13.26,8.78,21.21v1362.39c0,7.96-3.16,15.59-8.78,21.21-5.63,5.62-13.26,8.78-21.21,8.78H42.82c-7.96,0-15.58-3.16-21.21-8.78-5.62-5.62-8.78-13.26-8.78-21.21V45.11c0-7.95,3.16-15.58,8.78-21.21,5.63-5.62,13.26-8.79,21.21-8.79Z"
         id="path1" />
    </clipPath>
  </defs>
  <g
     id="_x30_d23ec0794">
    <g
       class="st4"
       clip-path="url(#clippath)"
       id="g3">
      <g
         class="st2"
         clip-path="url(#clippath-1)"
         id="g2">
        <path
           class="st3"
           d="M12.83,15.11h1477.94v1422.38H12.83V15.11Z"
           id="path2" />
      </g>
    </g>
    <switch
       id="switch1"
       transform="matrix(14.623291,0,0,14.623291,3748.5164,-5079.2543)"
       style="fill:#ffffff">
      <foreignObject
         requiredExtensions="http://ns.adobe.com/AdobeIllustrator/10.0/"
         x="0"
         y="0"
         width="1"
         height="1" />
      <g
         i:extraneous="self"
         id="g1"
         style="fill:#ffffff">
        <path
           d="m -220.5,374.5 c 1.4,1.4 2.7,2.7 4.1,4.1 2.4,2.4 2.4,5.2 0,7.6 -1.7,1.7 -3.4,3.4 -5.1,5.1 -0.5,0.4 -0.5,0.8 -0.3,1.4 1.1,2.7 2.8,5.2 4.7,7.5 3.7,4.6 8,8.7 13,11.8 1.1,0.7 2.3,1.2 3.4,1.8 0.6,0.3 1,0.2 1.4,-0.3 1.7,-1.8 3.4,-3.5 5.2,-5.2 2.3,-2.3 5.1,-2.3 7.4,0 2.8,2.8 5.6,5.6 8.4,8.3 2.3,2.3 2.3,5.2 0,7.6 -1.6,1.6 -3.3,3.1 -4.7,4.8 -2.2,2.4 -4.9,3.2 -8,3 -4.5,-0.2 -8.7,-1.8 -12.8,-3.7 -9,-4.4 -16.6,-10.4 -23,-18 -4.7,-5.6 -8.7,-11.8 -11.2,-18.7 -1.2,-3.4 -2.1,-6.8 -1.9,-10.4 0.2,-2.2 1,-4.1 2.7,-5.7 1.8,-1.7 3.5,-3.5 5.2,-5.2 2.3,-2.2 5.1,-2.2 7.4,0 1.3,1.4 2.7,2.8 4.1,4.2 z m 36.4,21.3 c -0.8,-4.9 -3.2,-9.4 -6.7,-13 -3.7,-3.7 -8.5,-6.1 -13.7,-6.9 l -0.8,5.4 c 4.1,0.6 7.7,2.4 10.6,5.3 2.8,2.8 4.6,6.2 5.2,10.1 z m 14.2,-1 c -1.4,-8.2 -5.3,-15.7 -11.2,-21.6 -6.2,-6.2 -14.1,-10.2 -22.8,-11.4 l -0.8,5.4 c 7.5,1.1 14.3,4.4 19.7,9.8 5.1,5.1 8.4,11.5 9.7,18.6 z"
           id="path1-6"
           style="fill:#ffffff" />
      </g>
    </switch>
  </g>
</svg>
